<svg xmlns="http://www.w3.org/2000/svg" xmlns:xlink="http://www.w3.org/1999/xlink" width="500" zoomAndPan="magnify" viewBox="0 0 375 374.999991" height="500" preserveAspectRatio="xMidYMid meet" version="1.0"><defs><clipPath id="66bac970b2"><path d="M 0 128 L 375 128 L 375 248.296875 L 0 248.296875 Z M 0 128 " clip-rule="nonzero"/></clipPath></defs><g clip-path="url(#66bac970b2)"><path fill="#f2f2f2" d="M 142.710938 177.523438 C 143.074219 175.953125 143.511719 174.402344 144.03125 172.882812 C 144.546875 171.371094 145.140625 169.875 145.816406 168.40625 C 147.480469 164.785156 149.578125 161.410156 152.058594 158.347656 C 154.539062 155.285156 157.410156 152.523438 160.597656 150.152344 L 161.886719 151.886719 C 158.839844 154.15625 156.105469 156.78125 153.738281 159.707031 C 151.367188 162.636719 149.363281 165.859375 147.78125 169.304688 C 147.144531 170.6875 146.574219 172.121094 146.082031 173.574219 C 145.585938 175.03125 145.167969 176.511719 144.816406 178 Z M 166.527344 146.390625 C 170.457031 144.289062 174.628906 142.761719 178.9375 141.839844 C 183.238281 140.917969 187.675781 140.589844 192.109375 140.898438 L 191.96875 143.054688 C 187.730469 142.761719 183.492188 143.070312 179.382812 143.957031 C 175.265625 144.839844 171.28125 146.292969 167.546875 148.292969 Z M 226.898438 216.453125 C 220.230469 225.449219 210.855469 231.488281 200.617188 234.113281 C 190.378906 236.738281 179.265625 235.945312 169.085938 231.265625 C 168.625 231.058594 168.164062 230.828125 167.6875 230.597656 C 167.25 230.375 166.78125 230.136719 166.304688 229.875 L 167.332031 227.972656 C 167.746094 228.195312 168.191406 228.425781 168.660156 228.65625 C 169.085938 228.871094 169.53125 229.085938 169.996094 229.292969 C 179.710938 233.757812 190.320312 234.519531 200.09375 232.011719 C 209.863281 229.507812 218.808594 223.738281 225.175781 215.15625 Z M 171.824219 140.613281 C 178.492188 138.21875 185.503906 137.28125 192.421875 137.765625 C 199.335938 138.25 206.160156 140.160156 212.421875 143.46875 L 211.796875 144.664062 C 205.699219 141.449219 199.058594 139.585938 192.332031 139.117188 C 185.601562 138.648438 178.761719 139.554688 172.285156 141.886719 Z M 226.429688 221.964844 C 225.207031 223.332031 223.894531 224.636719 222.503906 225.871094 C 221.128906 227.097656 219.6875 228.257812 218.179688 229.332031 C 206.820312 237.433594 193.253906 240.152344 180.511719 238.011719 C 167.769531 235.871094 155.835938 228.863281 147.75 217.492188 C 147.210938 216.738281 146.691406 215.964844 146.191406 215.179688 C 145.699219 214.390625 145.222656 213.59375 144.769531 212.777344 L 145.945312 212.125 C 146.382812 212.910156 146.851562 213.691406 147.335938 214.460938 C 147.8125 215.226562 148.324219 215.972656 148.847656 216.714844 C 156.726562 227.78125 168.332031 234.597656 180.734375 236.683594 C 193.136719 238.769531 206.339844 236.117188 217.390625 228.242188 C 218.855469 227.199219 220.261719 226.078125 221.605469 224.875 C 222.941406 223.691406 224.214844 222.417969 225.421875 221.074219 Z M 142.589844 208.367188 C 137.820312 197.421875 137.207031 185.542969 140.222656 174.675781 C 143.234375 163.804688 149.863281 153.941406 159.585938 147.011719 C 160.039062 146.683594 160.5 146.375 160.953125 146.070312 C 161.398438 145.777344 161.863281 145.476562 162.355469 145.171875 L 163.0625 146.316406 C 162.625 146.589844 162.171875 146.882812 161.703125 147.195312 C 161.25 147.496094 160.804688 147.796875 160.375 148.109375 C 150.914062 154.855469 144.457031 164.457031 141.523438 175.03125 C 138.59375 185.613281 139.195312 197.164062 143.832031 207.828125 Z M 160.527344 140.757812 C 167.171875 136.769531 174.5 134.28125 182.023438 133.34375 C 189.542969 132.402344 197.253906 133.007812 204.679688 135.226562 L 204.058594 137.296875 C 196.929688 135.164062 189.511719 134.582031 182.285156 135.480469 C 175.058594 136.390625 168.015625 138.785156 161.628906 142.601562 Z M 236.296875 216.484375 C 235.253906 218.226562 234.125 219.90625 232.917969 221.511719 C 231.703125 223.117188 230.398438 224.660156 229.007812 226.132812 C 218.535156 237.226562 204.5625 243.015625 190.433594 243.414062 C 176.304688 243.8125 162.035156 238.816406 150.953125 228.335938 C 150.214844 227.644531 149.5 226.921875 148.800781 226.183594 C 148.09375 225.433594 147.410156 224.671875 146.757812 223.898438 L 148.402344 222.507812 C 149.039062 223.261719 149.691406 223.984375 150.359375 224.695312 C 151.027344 225.402344 151.71875 226.085938 152.425781 226.761719 C 163.070312 236.835938 176.792969 241.640625 190.363281 241.25 C 203.933594 240.867188 217.359375 235.308594 227.425781 224.644531 C 228.753906 223.238281 230.007812 221.75 231.183594 220.199219 C 232.363281 218.640625 233.449219 217.023438 234.4375 215.371094 Z M 246.148438 205.390625 C 245.566406 207.332031 244.882812 209.25 244.105469 211.128906 C 243.324219 213 242.449219 214.835938 241.488281 216.625 C 239.101562 221.042969 236.175781 225.132812 232.808594 228.785156 C 229.429688 232.441406 225.597656 235.679688 221.382812 238.410156 L 220.207031 236.605469 C 224.261719 233.980469 227.957031 230.851562 231.21875 227.328125 C 234.476562 223.804688 237.289062 219.863281 239.589844 215.609375 C 240.519531 213.890625 241.359375 212.117188 242.109375 210.308594 C 242.855469 208.503906 243.515625 206.664062 244.078125 204.789062 Z M 213.601562 242.660156 C 208.488281 244.980469 203.105469 246.558594 197.605469 247.367188 C 192.109375 248.179688 186.5 248.21875 180.925781 247.480469 L 181.210938 245.339844 C 186.570312 246.054688 191.984375 246.015625 197.285156 245.238281 C 202.589844 244.457031 207.78125 242.929688 212.710938 240.695312 Z M 143.273438 149.46875 C 152.417969 138.679688 164.707031 131.832031 177.824219 129.363281 C 190.941406 126.898438 204.878906 128.800781 217.3125 135.523438 C 217.925781 135.847656 218.496094 136.175781 219.03125 136.484375 C 219.578125 136.8125 220.144531 137.152344 220.714844 137.511719 L 219.570312 139.332031 C 219.054688 139.007812 218.511719 138.679688 217.949219 138.355469 L 217.941406 138.355469 C 217.359375 138.019531 216.8125 137.710938 216.292969 137.421875 C 204.304688 130.9375 190.871094 129.101562 178.230469 131.480469 C 165.589844 133.859375 153.746094 140.460938 144.929688 150.859375 Z M 268.042969 163.695312 L 243.445312 163.695312 C 243.730469 164.332031 244.007812 164.976562 244.269531 165.628906 C 244.722656 166.734375 245.136719 167.863281 245.519531 168.992188 L 262.339844 168.992188 Z M 271.46875 162.34375 L 322.433594 162.34375 L 319.738281 159.644531 L 274.371094 159.644531 Z M 236.242188 188.589844 L 241.933594 188.589844 C 241.957031 185.550781 241.71875 182.503906 241.21875 179.480469 L 243.347656 179.128906 C 243.875 182.273438 244.121094 185.429688 244.097656 188.589844 L 246.519531 188.589844 C 246.578125 180.925781 245.105469 173.410156 242.273438 166.445312 C 241.902344 165.523438 241.496094 164.609375 241.074219 163.703125 L 238.378906 163.703125 C 239.570312 166.113281 240.582031 168.609375 241.417969 171.179688 L 239.367188 171.839844 C 238.460938 169.03125 237.324219 166.3125 235.964844 163.703125 L 233.0625 163.703125 C 234.183594 165.722656 235.160156 167.824219 235.988281 169.972656 C 237.503906 173.902344 238.53125 178.015625 239.03125 182.222656 L 237.6875 182.382812 C 237.203125 178.285156 236.203125 174.277344 234.730469 170.457031 C 233.832031 168.132812 232.757812 165.875 231.511719 163.703125 L 229.421875 163.703125 C 230.960938 166.257812 232.25 168.953125 233.285156 171.738281 C 235.269531 177.085938 236.289062 182.796875 236.242188 188.589844 Z M 136.453125 212.148438 L 139.132812 212.148438 C 137.480469 208.71875 136.207031 205.167969 135.308594 201.550781 L 132.820312 201.550781 C 133.066406 202.59375 133.34375 203.625 133.65625 204.660156 C 134.410156 207.222656 135.347656 209.71875 136.453125 212.148438 Z M 93.386719 215.996094 L 104.628906 222.480469 L 139.871094 222.472656 C 137.882812 219.625 136.160156 216.617188 134.703125 213.492188 L 97.714844 213.492188 Z M 370.324219 171.832031 C 371.199219 171.832031 371.90625 172.542969 371.90625 173.417969 C 371.90625 174.292969 371.199219 175 370.324219 175 C 369.6875 175 369.148438 174.625 368.894531 174.09375 L 312.179688 174.09375 L 304.683594 178.421875 L 313.847656 183.710938 L 319.167969 180.640625 L 346.777344 180.640625 L 346.777344 181.992188 L 319.523438 181.992188 L 315.199219 184.492188 L 326.433594 190.976562 L 359.300781 190.976562 C 359.554688 190.433594 360.101562 190.070312 360.730469 190.070312 C 361.605469 190.070312 362.3125 190.777344 362.3125 191.652344 C 362.3125 192.527344 361.605469 193.234375 360.730469 193.234375 C 360.09375 193.234375 359.554688 192.863281 359.300781 192.328125 L 326.082031 192.328125 L 313.847656 185.269531 L 305.765625 189.941406 L 244.0625 189.941406 C 244.015625 191.476562 243.90625 193.011719 243.722656 194.53125 C 243.132812 199.632812 241.828125 204.660156 239.835938 209.441406 L 237.839844 208.613281 C 239.753906 204.015625 241.011719 199.1875 241.574219 194.285156 C 241.742188 192.84375 241.855469 191.390625 241.902344 189.941406 L 239.339844 189.941406 C 239.175781 194.605469 238.371094 199.195312 236.964844 203.59375 C 235.535156 208.066406 233.476562 212.347656 230.84375 216.285156 L 229.722656 215.535156 C 232.289062 211.703125 234.285156 207.539062 235.683594 203.179688 C 237.050781 198.917969 237.832031 194.460938 238 189.941406 L 236.210938 189.941406 C 235.988281 196.003906 234.59375 202.128906 231.902344 207.984375 C 231.527344 208.796875 231.144531 209.578125 230.746094 210.332031 C 230.34375 211.097656 229.914062 211.859375 229.460938 212.617188 L 227.609375 211.511719 C 228.027344 210.800781 228.441406 210.078125 228.832031 209.332031 C 229.230469 208.574219 229.59375 207.828125 229.9375 207.09375 C 235.152344 195.742188 235.269531 183.347656 231.25 172.484375 C 227.234375 161.625 219.078125 152.300781 207.734375 147.089844 C 206.222656 146.398438 204.679688 145.785156 203.121094 145.269531 C 201.570312 144.75 199.972656 144.3125 198.335938 143.964844 L 198.78125 141.847656 C 200.457031 142.203125 202.136719 142.667969 203.789062 143.214844 C 205.433594 143.765625 207.050781 144.402344 208.625 145.125 C 217.082031 149.015625 223.847656 155.078125 228.5625 162.351562 L 230.691406 162.351562 C 230.128906 161.425781 229.523438 160.527344 228.894531 159.644531 C 227.925781 158.285156 226.890625 156.972656 225.796875 155.722656 C 224.699219 154.472656 223.539062 153.28125 222.304688 152.132812 L 223.226562 151.148438 C 224.476562 152.308594 225.675781 153.542969 226.8125 154.832031 C 227.941406 156.121094 229.007812 157.464844 230 158.855469 C 230.8125 159.996094 231.566406 161.15625 232.273438 162.351562 L 235.222656 162.351562 C 234.746094 161.5 234.253906 160.65625 233.730469 159.828125 C 231.375 156.097656 228.546875 152.652344 225.308594 149.589844 C 224 148.347656 222.621094 147.167969 221.199219 146.078125 C 219.769531 144.980469 218.289062 143.957031 216.765625 143.007812 L 217.894531 141.171875 C 219.492188 142.15625 221.03125 143.222656 222.519531 144.367188 C 224.007812 145.515625 225.429688 146.730469 226.789062 148.011719 C 230.152344 151.195312 233.09375 154.785156 235.550781 158.675781 C 236.304688 159.867188 237.011719 161.09375 237.671875 162.34375 L 240.398438 162.34375 C 237.519531 156.597656 233.679688 151.316406 228.976562 146.746094 L 230.476562 145.203125 C 235.621094 150.191406 239.769531 156.007812 242.800781 162.34375 L 269.472656 162.34375 L 273.820312 158.292969 L 320.273438 158.292969 L 324.320312 162.34375 L 347.34375 162.34375 L 347.34375 163.695312 L 325.671875 163.695312 L 330.664062 168.691406 L 375.007812 168.691406 L 375.007812 170.042969 L 330.105469 170.042969 L 323.761719 163.695312 L 269.996094 163.695312 L 262.851562 170.355469 L 245.941406 170.355469 C 247.761719 176.203125 248.691406 182.34375 248.652344 188.589844 L 305.390625 188.589844 L 312.480469 184.492188 L 303.316406 179.199219 L 297.113281 182.78125 L 254.636719 182.78125 L 254.636719 181.429688 L 296.765625 181.429688 L 301.972656 178.421875 L 295.929688 174.9375 L 249.246094 174.9375 L 249.246094 173.582031 L 296.296875 173.582031 L 303.332031 177.640625 L 311.820312 172.742188 L 368.886719 172.742188 C 369.140625 172.199219 369.6875 171.832031 370.324219 171.832031 Z M 1.550781 199.601562 C 2.1875 199.601562 2.726562 199.972656 2.980469 200.507812 L 40.535156 200.507812 L 52.03125 189.796875 L 98.484375 189.796875 L 108.875 200.195312 L 130.300781 200.195312 C 127.566406 186.902344 129.3125 172.597656 136.269531 159.714844 C 136.796875 158.753906 137.34375 157.800781 137.917969 156.859375 C 138.488281 155.921875 139.09375 155 139.730469 154.082031 L 141.5 155.308594 C 140.898438 156.175781 140.316406 157.066406 139.761719 157.980469 C 139.203125 158.882812 138.679688 159.804688 138.171875 160.742188 C 131.390625 173.296875 129.742188 187.253906 132.511719 200.195312 L 134.984375 200.195312 C 133.796875 194.859375 133.410156 189.394531 133.820312 183.984375 C 134.753906 171.691406 139.785156 159.699219 148.75 150.207031 C 149.15625 149.777344 149.578125 149.347656 150.015625 148.910156 C 150.460938 148.472656 150.898438 148.054688 151.328125 147.65625 L 152.796875 149.238281 C 152.359375 149.644531 151.941406 150.050781 151.535156 150.449219 C 151.128906 150.84375 150.722656 151.257812 150.316406 151.695312 C 141.699219 160.8125 136.867188 172.335938 135.96875 184.148438 C 135.070312 195.964844 138.113281 208.082031 145.253906 218.402344 L 143.480469 219.625 C 142.105469 217.644531 140.882812 215.59375 139.800781 213.5 L 137.089844 213.5 C 142.183594 223.953125 150.46875 232.96875 161.472656 238.917969 C 163.324219 239.921875 165.230469 240.820312 167.1875 241.617188 C 169.144531 242.414062 171.140625 243.097656 173.167969 243.667969 L 172.585938 245.746094 C 170.472656 245.148438 168.402344 244.433594 166.386719 243.613281 C 164.367188 242.792969 162.386719 241.855469 160.453125 240.8125 C 152.488281 236.507812 145.898438 230.652344 140.839844 223.820312 L 104.273438 223.828125 L 92.042969 216.769531 L 83.960938 221.441406 L 8.261719 221.441406 L 8.261719 220.085938 L 83.601562 220.085938 L 90.691406 215.988281 L 81.519531 210.699219 L 75.316406 214.28125 L 34.28125 214.28125 C 34.027344 214.8125 33.476562 215.1875 32.847656 215.1875 C 31.976562 215.1875 31.265625 214.476562 31.265625 213.601562 C 31.265625 212.726562 31.976562 212.019531 32.847656 212.019531 C 33.484375 212.019531 34.027344 212.394531 34.28125 212.925781 L 74.976562 212.925781 L 80.183594 209.917969 L 74.140625 206.433594 L 28.882812 206.433594 C 28.628906 206.96875 28.078125 207.339844 27.453125 207.339844 C 26.578125 207.339844 25.871094 206.632812 25.871094 205.757812 C 25.871094 204.882812 26.578125 204.175781 27.453125 204.175781 C 28.085938 204.175781 28.628906 204.550781 28.882812 205.082031 L 74.484375 205.082031 L 81.519531 209.148438 L 90.007812 204.238281 L 127.113281 204.238281 L 127.113281 205.589844 L 90.359375 205.589844 L 82.871094 209.917969 L 92.042969 215.210938 L 97.363281 212.140625 L 134.09375 212.140625 C 133.113281 209.902344 132.28125 207.605469 131.578125 205.273438 C 131.214844 204.039062 130.886719 202.800781 130.601562 201.550781 L 108.328125 201.550781 L 97.9375 191.152344 L 52.558594 191.152344 L 41.0625 201.859375 L 2.980469 201.859375 C 2.726562 202.402344 2.179688 202.765625 1.550781 202.765625 C 0.675781 202.765625 -0.03125 202.058594 -0.03125 201.183594 C -0.03125 200.308594 0.675781 199.601562 1.550781 199.601562 Z M 158.171875 224.296875 C 153.109375 219.984375 149.070312 214.710938 146.230469 208.851562 C 143.402344 202.996094 141.773438 196.554688 141.523438 189.910156 L 143.679688 189.832031 C 143.910156 196.171875 145.46875 202.320312 148.171875 207.914062 C 150.882812 213.507812 154.738281 218.542969 159.5625 222.65625 Z M 158.171875 224.296875 " fill-opacity="1" fill-rule="nonzero"/></g></svg>