<svg xmlns="http://www.w3.org/2000/svg" xmlns:xlink="http://www.w3.org/1999/xlink" width="500" zoomAndPan="magnify" viewBox="0 0 375 374.999991" height="500" preserveAspectRatio="xMidYMid meet" version="1.0"><defs><g/></defs><g fill="#ffffff" fill-opacity="1"><g transform="translate(49.945518, 202.74934)"><g><path d="M 40.078125 -49.828125 L 40.078125 -44.859375 L 0.328125 -44.859375 L 0.328125 -49.828125 Z M 40.078125 -23.359375 L 5.25 -23.359375 L 5.25 -5.046875 L 40.078125 -5.046875 L 40.078125 -0.125 L 0.328125 -0.125 L 0.328125 -28.265625 L 40.078125 -28.265625 Z M 40.078125 -23.359375 "/></g></g></g><g fill="#ffffff" fill-opacity="1"><g transform="translate(94.674717, 202.74934)"><g><path d="M 0 -0.203125 L 0 -3.84375 L 36.828125 -49.90625 L 43.265625 -49.90625 L 7.5 -5.171875 L 41.609375 -5.171875 L 41.609375 -0.203125 Z M 0 -0.203125 "/></g></g></g><g fill="#ffffff" fill-opacity="1"><g transform="translate(142.85483, 202.74934)"><g><path d="M -0.0625 -0.125 L -0.0625 -49.703125 L 3.578125 -49.703125 L 24.75 -23.75 L 45.59375 -49.703125 L 51.828125 -49.703125 L 26.546875 -18.1875 L 23.421875 -18.1875 L 4.90625 -40.140625 L 4.90625 -0.125 Z M -0.0625 -0.125 "/></g></g></g><g fill="#ffffff" fill-opacity="1"><g transform="translate(198.865871, 202.74934)"><g><path d="M 40.078125 -49.828125 L 40.078125 -44.859375 L 0.328125 -44.859375 L 0.328125 -49.828125 Z M 40.078125 -23.359375 L 5.25 -23.359375 L 5.25 -5.046875 L 40.078125 -5.046875 L 40.078125 -0.125 L 0.328125 -0.125 L 0.328125 -28.265625 L 40.078125 -28.265625 Z M 40.078125 -23.359375 "/></g></g></g><g fill="#ffffff" fill-opacity="1"><g transform="translate(243.59507, 202.74934)"><g><path d="M 0.0625 -49.640625 L 30 -49.828125 L 30 0.0625 L 25.015625 0.0625 L 25.015625 -44.796875 L 0.0625 -44.796875 Z M 0.0625 -49.640625 "/></g></g></g><g fill="#ffffff" fill-opacity="1"><g transform="translate(278.436065, 202.74934)"><g><path d="M 0 -0.0625 L 19.84375 -49.703125 L 23.03125 -49.703125 L 42.875 -0.0625 L 37.09375 -0.0625 L 21.5 -40.078125 L 5.4375 -0.0625 Z M 0 -0.0625 "/></g></g></g><g fill="#ffffff" fill-opacity="1"><g transform="translate(54.459844, 230.721943)"><g><path d="M 11.875 -8.9375 L 9.34375 0 L 8.34375 0 L 6.09375 -7.625 L 3.78125 0 L 2.8125 0.015625 L 0.328125 -8.9375 L 1.296875 -8.9375 L 3.34375 -1.09375 L 5.625 -8.9375 L 6.625 -8.9375 L 8.859375 -1.09375 L 10.921875 -8.9375 Z M 11.875 -8.9375 "/></g></g></g><g fill="#ffffff" fill-opacity="1"><g transform="translate(76.917856, 230.721943)"><g><path d="M 6.203125 -2.125 L 2.140625 -2.125 L 1.359375 0 L 0.40625 0 L 3.671875 -8.828125 L 4.6875 -8.828125 L 7.9375 0 L 6.984375 0 Z M 5.9375 -2.859375 L 4.171875 -7.703125 L 2.40625 -2.859375 Z M 5.9375 -2.859375 "/></g></g></g><g fill="#ffffff" fill-opacity="1"><g transform="translate(95.500036, 230.721943)"><g><path d="M 1.921875 -0.734375 L 5.125 -0.734375 L 5.125 0 L 1.03125 0 L 1.03125 -8.9375 L 1.921875 -8.9375 Z M 1.921875 -0.734375 "/></g></g></g><g fill="#ffffff" fill-opacity="1"><g transform="translate(111.127368, 230.721943)"><g><path d="M 5.796875 0 L 1.921875 -4.140625 L 1.921875 0 L 1.03125 0 L 1.03125 -8.9375 L 1.921875 -8.9375 L 1.921875 -4.765625 L 5.796875 -8.9375 L 6.9375 -8.9375 L 2.75 -4.484375 L 6.96875 0 Z M 5.796875 0 "/></g></g></g><g fill="#ffffff" fill-opacity="1"><g transform="translate(128.635062, 230.721943)"><g/></g></g><g fill="#ffffff" fill-opacity="1"><g transform="translate(142.382049, 230.721943)"><g><path d="M 1.921875 -8.9375 L 1.921875 0 L 1.03125 0 L 1.03125 -8.9375 Z M 1.921875 -8.9375 "/></g></g></g><g fill="#ffffff" fill-opacity="1"><g transform="translate(155.55341, 230.721943)"><g><path d="M 7.765625 0 L 6.875 0 L 1.921875 -7.53125 L 1.921875 0 L 1.03125 0 L 1.03125 -8.9375 L 1.921875 -8.9375 L 6.875 -1.4375 L 6.875 -8.9375 L 7.765625 -8.9375 Z M 7.765625 0 "/></g></g></g><g fill="#ffffff" fill-opacity="1"><g transform="translate(174.570497, 230.721943)"><g><path d="M 6.25 -8.9375 L 6.25 -8.203125 L 3.78125 -8.203125 L 3.78125 0 L 2.875 0 L 2.875 -8.203125 L 0.390625 -8.203125 L 0.390625 -8.9375 Z M 6.25 -8.9375 "/></g></g></g><g fill="#ffffff" fill-opacity="1"><g transform="translate(191.46419, 230.721943)"><g><path d="M 5.046875 0.09375 C 4.210938 0.09375 3.457031 -0.0976562 2.78125 -0.484375 C 2.113281 -0.878906 1.582031 -1.421875 1.1875 -2.109375 C 0.800781 -2.804688 0.609375 -3.597656 0.609375 -4.484375 C 0.609375 -5.359375 0.800781 -6.144531 1.1875 -6.84375 C 1.582031 -7.539062 2.113281 -8.082031 2.78125 -8.46875 C 3.457031 -8.851562 4.210938 -9.046875 5.046875 -9.046875 C 5.878906 -9.046875 6.628906 -8.851562 7.296875 -8.46875 C 7.972656 -8.082031 8.503906 -7.539062 8.890625 -6.84375 C 9.273438 -6.144531 9.46875 -5.359375 9.46875 -4.484375 C 9.46875 -3.597656 9.273438 -2.804688 8.890625 -2.109375 C 8.503906 -1.421875 7.972656 -0.878906 7.296875 -0.484375 C 6.628906 -0.0976562 5.878906 0.09375 5.046875 0.09375 Z M 5.046875 -0.6875 C 5.710938 -0.6875 6.304688 -0.835938 6.828125 -1.140625 C 7.359375 -1.453125 7.773438 -1.894531 8.078125 -2.46875 C 8.390625 -3.050781 8.546875 -3.722656 8.546875 -4.484375 C 8.546875 -5.242188 8.390625 -5.90625 8.078125 -6.46875 C 7.773438 -7.039062 7.359375 -7.476562 6.828125 -7.78125 C 6.304688 -8.09375 5.710938 -8.25 5.046875 -8.25 C 4.378906 -8.25 3.78125 -8.09375 3.25 -7.78125 C 2.71875 -7.476562 2.296875 -7.039062 1.984375 -6.46875 C 1.679688 -5.90625 1.53125 -5.242188 1.53125 -4.484375 C 1.53125 -3.722656 1.679688 -3.050781 1.984375 -2.46875 C 2.296875 -1.894531 2.71875 -1.453125 3.25 -1.140625 C 3.78125 -0.835938 4.378906 -0.6875 5.046875 -0.6875 Z M 5.046875 -0.6875 "/></g></g></g><g fill="#ffffff" fill-opacity="1"><g transform="translate(211.786013, 230.721943)"><g/></g></g><g fill="#ffffff" fill-opacity="1"><g transform="translate(225.532999, 230.721943)"><g><path d="M 5.859375 -8.9375 L 5.859375 -8.203125 L 1.921875 -8.203125 L 1.921875 -4.859375 L 5.25 -4.859375 L 5.25 -4.125 L 1.921875 -4.125 L 1.921875 0 L 1.03125 0 L 1.03125 -8.9375 Z M 5.859375 -8.9375 "/></g></g></g><g fill="#ffffff" fill-opacity="1"><g transform="translate(242.081333, 230.721943)"><g><path d="M 1.875 -8.9375 L 1.875 -3.3125 C 1.875 -2.425781 2.082031 -1.769531 2.5 -1.34375 C 2.925781 -0.914062 3.507812 -0.703125 4.25 -0.703125 C 4.976562 -0.703125 5.550781 -0.910156 5.96875 -1.328125 C 6.382812 -1.753906 6.59375 -2.414062 6.59375 -3.3125 L 6.59375 -8.9375 L 7.484375 -8.9375 L 7.484375 -3.328125 C 7.484375 -2.191406 7.179688 -1.335938 6.578125 -0.765625 C 5.984375 -0.191406 5.203125 0.09375 4.234375 0.09375 C 3.273438 0.09375 2.492188 -0.191406 1.890625 -0.765625 C 1.285156 -1.335938 0.984375 -2.191406 0.984375 -3.328125 L 0.984375 -8.9375 Z M 1.875 -8.9375 "/></g></g></g><g fill="#ffffff" fill-opacity="1"><g transform="translate(260.778637, 230.721943)"><g><path d="M 6.25 -8.9375 L 6.25 -8.203125 L 3.78125 -8.203125 L 3.78125 0 L 2.875 0 L 2.875 -8.203125 L 0.390625 -8.203125 L 0.390625 -8.9375 Z M 6.25 -8.9375 "/></g></g></g><g fill="#ffffff" fill-opacity="1"><g transform="translate(277.672331, 230.721943)"><g><path d="M 1.875 -8.9375 L 1.875 -3.3125 C 1.875 -2.425781 2.082031 -1.769531 2.5 -1.34375 C 2.925781 -0.914062 3.507812 -0.703125 4.25 -0.703125 C 4.976562 -0.703125 5.550781 -0.910156 5.96875 -1.328125 C 6.382812 -1.753906 6.59375 -2.414062 6.59375 -3.3125 L 6.59375 -8.9375 L 7.484375 -8.9375 L 7.484375 -3.328125 C 7.484375 -2.191406 7.179688 -1.335938 6.578125 -0.765625 C 5.984375 -0.191406 5.203125 0.09375 4.234375 0.09375 C 3.273438 0.09375 2.492188 -0.191406 1.890625 -0.765625 C 1.285156 -1.335938 0.984375 -2.191406 0.984375 -3.328125 L 0.984375 -8.9375 Z M 1.875 -8.9375 "/></g></g></g><g fill="#ffffff" fill-opacity="1"><g transform="translate(296.369636, 230.721943)"><g><path d="M 5.78125 0 L 3.578125 -3.734375 L 1.921875 -3.734375 L 1.921875 0 L 1.03125 0 L 1.03125 -8.9375 L 3.71875 -8.9375 C 4.707031 -8.9375 5.457031 -8.695312 5.96875 -8.21875 C 6.488281 -7.75 6.75 -7.125 6.75 -6.34375 C 6.75 -5.695312 6.5625 -5.144531 6.1875 -4.6875 C 5.820312 -4.226562 5.28125 -3.929688 4.5625 -3.796875 L 6.859375 0 Z M 1.921875 -4.46875 L 3.71875 -4.46875 C 4.414062 -4.46875 4.941406 -4.632812 5.296875 -4.96875 C 5.648438 -5.3125 5.828125 -5.769531 5.828125 -6.34375 C 5.828125 -6.9375 5.65625 -7.390625 5.3125 -7.703125 C 4.976562 -8.023438 4.445312 -8.1875 3.71875 -8.1875 L 1.921875 -8.1875 Z M 1.921875 -4.46875 "/></g></g></g><g fill="#ffffff" fill-opacity="1"><g transform="translate(314.120361, 230.721943)"><g><path d="M 1.921875 -8.21875 L 1.921875 -4.875 L 5.3125 -4.875 L 5.3125 -4.140625 L 1.921875 -4.140625 L 1.921875 -0.75 L 5.6875 -0.75 L 5.6875 0 L 1.03125 0 L 1.03125 -8.953125 L 5.6875 -8.953125 L 5.6875 -8.21875 Z M 1.921875 -8.21875 "/></g></g></g></svg>